<?xml version="1.0" encoding="UTF-8"?>
<svg id="uuid-945e0f51-9817-49f3-bf1a-646c6bfa2ac5" data-name="Capa 1" xmlns="http://www.w3.org/2000/svg" width="500" height="170.25" viewBox="0 0 500 170.25">
  <path d="M34.88,3.21h45.89l-27.07,126.65h50.02l-7.8,37.17H0L34.88,3.21Z" style="fill: #000; stroke-width: 0px;"/>
  <path d="M196.64,0c58.97,0,51.63,34.42,40.84,85.12-11.24,52.31-18.13,85.12-77.09,85.12s-52.08-32.81-40.84-85.12C130.33,34.42,137.67,0,196.64,0ZM190.21,30.29c-9.87,0-13.31,6.88-23.4,54.84-10.32,47.95-9.87,54.84,0,54.84s13.08-6.88,23.4-54.84c10.1-47.95,9.87-54.84,0-54.84Z" style="fill: #000; stroke-width: 0px;"/>
  <path d="M309.07,77.78h56.21l-19.04,89.25h-31.89l1.61-13.31h-.46c-10.78,14.45-23.86,16.52-37.17,16.52-46.58,0-39.23-40.84-29.83-84.89C258.36,38.55,269.14,0,325.13,0c45.43,0,50.48,22.72,43.36,55.53h-43.14l1.38-6.65c2.75-12.16,1.38-18.59-7.57-18.59-11.01,0-14,10.33-16.06,20.19l-14.45,67.46c-2.07,10.1-3.67,22.03,7.34,22.03s14.68-8.49,17.21-20.65l2.52-11.24h-13.08l6.42-30.29Z" style="fill: #000; stroke-width: 0px;"/>
  <path d="M451.78,0c58.97,0,51.63,34.42,40.84,85.12-11.24,52.31-18.13,85.12-77.09,85.12s-52.08-32.81-40.84-85.12C385.47,34.42,392.82,0,451.78,0ZM445.36,30.29c-9.87,0-13.31,6.88-23.4,54.84-10.32,47.95-9.87,54.84,0,54.84s13.08-6.88,23.4-54.84c10.1-47.95,9.87-54.84,0-54.84Z" style="fill: #000; stroke-width: 0px;"/>
</svg>